<svg width="121" height="101" viewBox="0 0 121 101" fill="none" xmlns="http://www.w3.org/2000/svg">
<g id="back-wing">
<path id="Vector" d="M4.24198 51.824L38.4463 86.0311C57.1559 104.741 87.4927 104.741 106.202 86.0311C124.912 67.3188 124.912 36.9847 106.202 18.2751C82.8495 -5.07771 44.9851 -5.07771 21.6323 18.2751L4.24198 35.6654C-0.221005 40.1284 -0.221005 47.361 4.24198 51.824Z" fill="#8CD6FE"/>
<path id="Vector_2" d="M68.1222 51.5809C70.9464 51.5809 73.2762 49.333 73.3608 46.4924C73.4482 43.5972 71.1731 41.18 68.2751 41.0953L24.6941 39.7925C21.8262 39.6969 19.3817 41.983 19.297 44.8782C19.2096 47.7734 21.4875 50.1906 24.3828 50.2753L67.9637 51.5781C68.0156 51.5781 68.0703 51.5809 68.1222 51.5809Z" fill="#BAE7FF"/>
</g>
</svg>
