<svg width="512" height="512" viewBox="0 0 512 512" fill="none" xmlns="http://www.w3.org/2000/svg">
<g id="beehive">
<g id="hive">
<g id="hive2">
<g id="Group">
<path id="Vector" d="M340.5 143.832H171.5C157.693 143.832 146.5 155.025 146.5 168.832C146.5 182.639 157.693 193.832 171.5 193.832H340.5C354.307 193.832 365.5 182.639 365.5 168.832C365.5 155.025 354.307 143.832 340.5 143.832Z" fill="#FFCA28"/>
<path id="Vector_2" d="M371 193.832H141C127.193 193.832 116 205.025 116 218.832C116 232.639 127.193 243.832 141 243.832H371C384.807 243.832 396 232.639 396 218.832C396 205.025 384.807 193.832 371 193.832Z" fill="#FFCA28"/>
<path id="Vector_3" d="M401 343.832H111C97.1929 343.832 86 355.025 86 368.832C86 382.639 97.1929 393.832 111 393.832H401C414.807 393.832 426 382.639 426 368.832C426 355.025 414.807 343.832 401 343.832Z" fill="#FFCA28"/>
<path id="Vector_4" d="M371 393.832H141C127.193 393.832 116 405.025 116 418.832C116 432.639 127.193 443.832 141 443.832H371C384.807 443.832 396 432.639 396 418.832C396 405.025 384.807 393.832 371 393.832Z" fill="#FFCA28"/>
</g>
</g>
<path id="Vector_5" d="M86 268.832C86 275.462 88.6339 281.821 93.3223 286.51C98.0107 291.198 104.37 293.832 111 293.832H219.668V280.168C219.667 275.396 220.607 270.672 222.432 266.263C224.258 261.855 226.934 257.849 230.308 254.475C233.682 251.101 237.687 248.424 242.095 246.598C246.504 244.772 251.228 243.832 256 243.832H111C104.37 243.832 98.0107 246.466 93.3223 251.154C88.6339 255.843 86 262.202 86 268.832V268.832Z" fill="#FFCA28"/>
<g id="hive_2">
<path id="Vector_6" d="M117.696 409.832H394.304C392.489 405.124 389.292 401.076 385.132 398.22C380.972 395.364 376.046 393.834 371 393.832H141C135.954 393.834 131.028 395.364 126.868 398.22C122.708 401.076 119.511 405.124 117.696 409.832V409.832Z" fill="#FF8F00"/>
<path id="Vector_7" d="M340.5 443.832H171.5C157.693 443.832 146.5 455.025 146.5 468.832C146.5 482.639 157.693 493.832 171.5 493.832H340.5C354.307 493.832 365.5 482.639 365.5 468.832C365.5 455.025 354.307 443.832 340.5 443.832Z" fill="#FFCA28"/>
<path id="Vector_8" d="M148.196 459.832H363.796C361.981 455.124 358.784 451.076 354.624 448.22C350.464 445.364 345.538 443.834 340.492 443.832H171.5C166.454 443.834 161.528 445.364 157.368 448.22C153.208 451.076 150.011 455.124 148.196 459.832V459.832Z" fill="#FF8F00"/>
<path id="Vector_9" d="M117.696 227.836H394.304C392.489 232.544 389.292 236.592 385.132 239.448C380.972 242.304 376.046 243.834 371 243.836H141C135.954 243.834 131.028 242.304 126.868 239.448C122.708 236.592 119.511 232.544 117.696 227.836V227.836Z" fill="#FF8F00"/>
<path id="Vector_10" d="M148.196 177.836H363.796C361.981 182.544 358.784 186.592 354.624 189.448C350.464 192.304 345.538 193.834 340.492 193.836H171.5C166.454 193.834 161.528 192.304 157.368 189.448C153.208 186.592 150.011 182.544 148.196 177.836V177.836Z" fill="#FF8F00"/>
<path id="Vector_11" d="M256 243.832C265.636 243.832 274.877 247.66 281.691 254.473C288.504 261.287 292.332 270.528 292.332 280.164V343.832H219.668V280.168C219.667 275.396 220.607 270.672 222.432 266.263C224.258 261.855 226.934 257.849 230.308 254.475C233.682 251.101 237.687 248.424 242.095 246.598C246.504 244.772 251.228 243.832 256 243.832V243.832Z" fill="#596675"/>
<path id="Vector_12" d="M401 243.832H256C265.636 243.832 274.877 247.66 281.691 254.473C288.504 261.287 292.332 270.528 292.332 280.164V293.832H401C407.63 293.832 413.989 291.198 418.678 286.51C423.366 281.821 426 275.462 426 268.832C426 262.202 423.366 255.843 418.678 251.154C413.989 246.466 407.63 243.832 401 243.832V243.832Z" fill="#FFCA28"/>
<path id="Vector_13" d="M401 343.832H111C105.954 343.834 101.028 345.364 96.8681 348.22C92.7085 351.076 89.5109 355.124 87.696 359.832H424.3C422.485 355.125 419.288 351.077 415.13 348.221C410.971 345.365 406.045 343.835 401 343.832Z" fill="#FF8F00"/>
<path id="Vector_14" d="M432 293.832H292.332V343.832H432C438.63 343.832 444.989 341.198 449.678 336.51C454.366 331.821 457 325.462 457 318.832C457 312.202 454.366 305.843 449.678 301.154C444.989 296.466 438.63 293.832 432 293.832Z" fill="#FFCA28"/>
<path id="Vector_15" d="M292.216 277.832C292.264 278.608 292.332 279.38 292.332 280.168V293.836H401C406.046 293.834 410.972 292.304 415.132 289.448C419.292 286.592 422.489 282.544 424.304 277.836L292.216 277.832Z" fill="#FF8F00"/>
<path id="Vector_16" d="M87.696 277.832C89.5109 282.54 92.7085 286.588 96.8681 289.444C101.028 292.3 105.954 293.83 111 293.832H219.668V280.168C219.668 279.368 219.736 278.608 219.784 277.832H87.696Z" fill="#FF8F00"/>
<path id="Vector_17" d="M80 293.832C73.3696 293.832 67.0107 296.466 62.3223 301.154C57.6339 305.843 55 312.202 55 318.832C55 325.462 57.6339 331.821 62.3223 336.51C67.0107 341.198 73.3696 343.832 80 343.832H219.668V293.832H80Z" fill="#FFCA28"/>
</g>
</g>
<g id="branch">
<path id="Vector_18" d="M242 55.5H270V143.832H242V55.5Z" fill="#9B6E42"/>
<path id="Vector_19" d="M7 18.168V55.5H145.068L78.52 95.832C77.3442 96.545 76.3721 97.5489 75.6974 98.747C75.0226 99.9452 74.6681 101.297 74.668 102.672V121.296C74.6681 122.715 75.0456 124.108 75.7616 125.333C76.4777 126.558 77.5066 127.57 78.743 128.266C79.9793 128.962 81.3785 129.317 82.7971 129.294C84.2158 129.271 85.6028 128.872 86.816 128.136L206.668 55.496H505V18.168H7Z" fill="#9B6E42"/>
</g>
</g>
</svg>
