<svg width="185" height="184" viewBox="0 0 185 184" fill="none" xmlns="http://www.w3.org/2000/svg">
<g id="body">
<path id="Vector" d="M170.103 124.757L183.607 169.144C186.232 177.777 178.163 185.849 169.53 183.221L125.14 169.717L135.099 134.715L170.103 124.757Z" fill="#4E5660"/>
<path id="Vector_2" d="M23.068 22.682C55.6609 -9.91091 112.194 -6.22089 149.34 30.9224C186.486 68.0684 190.176 124.601 157.583 157.194C124.99 189.787 68.4544 186.097 31.3112 148.954C-5.83481 111.808 -9.52483 55.2749 23.068 22.682V22.682Z" fill="#F7EF87"/>
<path id="Vector_3" d="M128.751 14.7885C136.038 19.175 142.973 24.5584 149.337 30.9224C157.179 38.764 163.521 47.4687 168.355 56.6296C150.719 113.651 98.5918 171.913 32.573 150.194C32.1497 149.781 31.7263 149.372 31.3057 148.954C17.6764 135.324 8.55649 119.081 4.07712 102.371C62.9972 116.104 109.717 66.5689 128.751 14.7885V14.7885Z" fill="#4E5660"/>
</g>
</svg>
