<svg width="272" height="272" viewBox="0 0 272 272" fill="none" xmlns="http://www.w3.org/2000/svg">
<g id="clouds-and-sun 1" clip-path="url(#clip0)">
<g id="sun">
<g id="Group">
<path id="Vector" d="M173.548 175.889C202.057 175.889 225.168 152.778 225.168 124.269C225.168 95.76 202.057 72.649 173.548 72.649C145.039 72.649 121.928 95.76 121.928 124.269C121.928 152.778 145.039 175.889 173.548 175.889Z" fill="#FFD33F"/>
</g>
</g>
<g id="cloud-2">
<path id="Vector_2" d="M154.682 143.039C154.685 122.305 137.879 105.495 117.146 105.492C112.095 105.492 107.096 106.51 102.448 108.487C91.2814 88.0487 65.6616 80.5328 45.2237 91.6991C29.9982 100.017 21.4216 116.813 23.6102 134.024C8.26446 136.537 -2.13869 151.015 0.374258 166.361C2.59274 179.906 14.2535 189.878 27.9791 189.966H154.682C167.641 189.966 178.146 179.461 178.146 166.503C178.146 153.544 167.641 143.039 154.682 143.039Z" fill="#75E6FF"/>
</g>
<g id="cloud-1">
<path id="Vector_3" d="M234.458 157.117C230.745 157.117 227.053 157.667 223.501 158.75C216.657 131.104 188.698 114.241 161.052 121.084C139.562 126.404 123.865 144.847 122.049 166.911C120.425 166.651 118.785 166.514 117.141 166.503C98.9986 166.503 84.2916 181.21 84.2916 199.352C84.2916 217.494 98.9986 232.201 117.141 232.201H234.458C255.192 232.201 272 215.392 272 194.659C272 173.925 255.192 157.117 234.458 157.117Z" fill="#ADF0FF"/>
</g>
</g>
<defs>
<clipPath id="clip0">
<rect width="272" height="272" fill="white"/>
</clipPath>
</defs>
</svg>
