<svg width="512" height="512" viewBox="0 0 512 512" fill="none" xmlns="http://www.w3.org/2000/svg">
<g id="bee (1) 1">
<g id="left-wing">
<path id="Vector" d="M163.184 135H125C99.0429 135 78 113.958 78 88C78 62.0429 99.0423 41 125 41C150.957 41 172 62.0423 172 88V126.184C171.999 131.053 168.053 135 163.184 135Z" fill="#ABDFEB"/>
<g id="left-wing_2">
<path id="Vector_2" d="M163.184 135H125C99.0429 135 78 113.958 78 88C78 62.0429 99.0423 41 125 41C150.957 41 172 62.0423 172 88V126.184C171.999 131.053 168.053 135 163.184 135Z" fill="#8BCDD8"/>
</g>
</g>
<g id="legs">
<path id="Vector_3" d="M221.528 283C223.71 283 225.911 282.321 227.794 280.913C232.43 277.447 233.379 270.878 229.914 266.24C221.959 255.594 221.959 245.207 221.959 229.483C221.959 223.694 217.268 219 211.48 219C205.692 219 201 223.693 201 229.483C201 246.495 201 262.563 213.126 278.792C215.183 281.546 218.337 283 221.528 283Z" fill="#464D59"/>
<g id="Group">
<path id="Vector_4" d="M180.373 283C182.555 283 184.757 282.321 186.639 280.913C191.276 277.448 192.224 270.881 188.759 266.244C180.803 255.601 180.803 245.216 180.803 229.498C180.803 223.71 176.111 219.017 170.323 219.017C164.534 219.017 159.842 223.709 159.842 229.498C159.842 246.505 159.842 262.569 171.97 278.793C174.028 281.547 177.181 283 180.373 283Z" fill="#464D59"/>
<path id="Vector_5" d="M139.596 283C141.778 283 143.979 282.321 145.862 280.913C150.498 277.449 151.447 270.881 147.982 266.244C140.027 255.601 140.027 245.217 140.027 229.498C140.027 223.71 135.335 219.017 129.547 219.017C123.758 219.017 119.066 223.709 119.066 229.498C119.066 246.505 119.066 262.569 131.193 278.793C133.251 281.547 136.404 283 139.596 283Z" fill="#464D59"/>
</g>
<path id="Vector_6" d="M98.5282 283C100.711 283 102.911 282.321 104.794 280.913C109.43 277.447 110.379 270.878 106.914 266.24C98.9589 255.594 98.9589 245.207 98.9589 229.483C98.9589 223.694 94.2673 219 88.4795 219C82.6916 219 78 223.693 78 229.483C78 246.495 78 262.563 90.1257 278.792C92.1843 281.546 95.3368 283 98.5282 283Z" fill="#464D59"/>
</g>
<g id="body">
<g id="body_2">
<path id="Vector_7" d="M238 151L245.226 152.965C258.749 156.643 271.23 163.433 281.678 172.795C284.774 175.57 284.774 180.429 281.678 183.204C271.23 192.566 258.749 199.357 245.226 203.035L238.001 205L238 151Z" fill="#464D59"/>
<path id="Vector_8" d="M116.364 243H193.636C229.184 243 258 214.122 258 178.5C258 142.877 229.183 114 193.636 114H116.364C80.8169 114 52 142.878 52 178.5C52 214.122 80.8169 243 116.364 243Z" fill="#F7D88B"/>
<path id="Vector_9" d="M194.156 114C195.412 114 196.658 114.039 197.896 114.11C222.943 144.685 221.592 212.12 186.448 243H127C162.185 212.084 163.499 144.523 138.36 114H194.156V114Z" fill="#464D59"/>
</g>
<path id="Vector_10" opacity="0.05" d="M116.174 114H169.657C175.003 123.435 178 134.019 178 145.2C178 184.854 140.313 217 93.8241 217C82.2257 217 71.1761 214.999 61.122 211.379C55.3323 201.717 52 190.407 52 178.316C52.0006 142.795 80.7322 114 116.174 114Z" fill="black"/>
</g>
<g id="right-wing">
<path id="Vector_11" d="M173.816 135H212C237.957 135 259 113.958 259 88C259 62.0429 237.958 41 212 41C186.043 41 165 62.0423 165 88V126.184C165.001 131.053 168.947 135 173.816 135Z" fill="#ABDFEB"/>
</g>
<g id="head">
<path id="Vector_12" d="M84.5 204C37.8319 204 0 171.765 0 132C0 92.2355 37.8319 60 84.5 60C131.168 60 169 92.2355 169 132C169 171.765 131.168 204 84.5 204Z" fill="#F7D88B"/>
<g id="Group_2">
<path id="Vector_13" d="M122.467 144.213C113.403 144.213 106.056 138.362 106.056 131.145C106.056 123.927 113.403 118.077 122.467 118.077C131.53 118.077 138.877 123.927 138.877 131.145C138.877 138.362 131.53 144.213 122.467 144.213Z" fill="#F27281"/>
<path id="Vector_14" d="M33.5155 144.213C24.4524 144.213 17.1052 138.362 17.1052 131.145C17.1052 123.927 24.4524 118.077 33.5155 118.077C42.5787 118.077 49.9258 123.927 49.9258 131.145C49.9258 138.362 42.5787 144.213 33.5155 144.213Z" fill="#F27281"/>
</g>
<g id="Group_3">
<path id="Vector_15" d="M105.092 121.089C107.391 121.089 109.255 119.226 109.255 116.926C109.255 114.915 110.891 113.279 112.902 113.279C114.914 113.279 116.55 114.915 116.55 116.926C116.55 119.226 118.413 121.089 120.713 121.089C123.013 121.089 124.876 119.226 124.876 116.926C124.876 110.323 119.504 104.952 112.902 104.952C106.3 104.952 100.929 110.324 100.929 116.926C100.929 119.225 102.792 121.089 105.092 121.089Z" fill="#464D59"/>
<path id="Vector_16" d="M35.2707 121.089C37.5704 121.089 39.4338 119.226 39.4338 116.926C39.4338 114.915 41.0701 113.279 43.0812 113.279C45.0928 113.279 46.7291 114.915 46.7291 116.926C46.7291 119.226 48.5925 121.089 50.8922 121.089C53.1919 121.089 55.0553 119.226 55.0553 116.926C55.0553 110.323 49.6833 104.952 43.0812 104.952C36.4785 104.952 31.1076 110.324 31.1076 116.926C31.1076 119.225 32.971 121.089 35.2707 121.089Z" fill="#464D59"/>
<path id="Vector_17" d="M77.9922 133.993C82.3706 133.993 86.5343 132.097 89.4157 128.791C90.9266 127.058 90.7462 124.428 89.0133 122.917C87.2786 121.405 84.6498 121.586 83.1394 123.32C81.8389 124.812 79.9627 125.667 77.9922 125.667C76.0211 125.667 74.145 124.812 72.845 123.32C71.3346 121.587 68.7052 121.406 66.9712 122.917C65.2382 124.428 65.0584 127.058 66.5687 128.791C69.4501 132.097 73.6138 133.993 77.9922 133.993Z" fill="#464D59"/>
<path id="Vector_18" d="M114.581 79.5565C116.605 79.5565 118.38 78.0772 118.692 76.0145C120.093 66.732 119.888 27.4075 92.7806 18.9826C90.5853 18.2993 88.2523 19.5277 87.5695 21.723C86.8868 23.9183 88.1135 26.2513 90.3094 26.934C98.9802 29.6289 105.068 37.1996 108.402 49.4358C111.179 59.6281 111.153 70.1712 110.458 74.7717C110.115 77.0453 111.679 79.1668 113.953 79.5098C114.164 79.5409 114.374 79.5565 114.581 79.5565Z" fill="#464D59"/>
<path id="Vector_19" d="M91.5433 35.031C84.8753 35.031 79.4698 29.6255 79.4698 22.9575C79.4698 16.2895 84.8753 10.884 91.5433 10.884C98.2113 10.884 103.617 16.2895 103.617 22.9575C103.617 29.6255 98.2113 35.031 91.5433 35.031Z" fill="#464D59"/>
<path id="Vector_20" d="M54.8694 79.5565C56.8932 79.5565 58.6689 78.0772 58.9803 76.0145C60.3819 66.732 60.177 27.4075 33.0693 18.9826C30.8751 18.2993 28.541 19.5277 27.8582 21.723C27.176 23.9183 28.4022 26.2513 30.5981 26.934C39.2695 29.6289 45.3565 37.1996 48.6903 49.4358C51.4673 59.6275 51.4418 70.1712 50.7468 74.7717C50.4038 77.0453 51.968 79.1668 54.2416 79.5098C54.4531 79.5409 54.6623 79.5565 54.8694 79.5565Z" fill="#464D59"/>
<path id="Vector_21" d="M31.8337 35.031C25.1657 35.031 19.7602 29.6255 19.7602 22.9575C19.7602 16.2895 25.1657 10.884 31.8337 10.884C38.5017 10.884 43.9072 16.2895 43.9072 22.9575C43.9072 29.6255 38.5017 35.031 31.8337 35.031Z" fill="#464D59"/>
</g>
</g>
</g>
</svg>
