<svg width="120" height="100" viewBox="0 0 120 100" fill="none" xmlns="http://www.w3.org/2000/svg">
<g id="frount-wing">
<path id="Vector" d="M3.52993 51.1659L37.7343 85.373C56.4439 104.083 86.7779 104.083 105.488 85.373C124.2 66.6635 124.2 36.3294 105.488 17.6171C82.1347 -5.73573 44.2731 -5.73573 20.9203 17.6171L3.52993 35.0102C-0.933051 39.4704 -0.933051 46.7057 3.52993 51.1659Z" fill="#BAE7FF"/>
<path id="Vector_2" d="M67.4101 50.9229C70.2343 50.9229 72.5641 48.6777 72.6488 45.8371C72.7362 42.9419 70.4583 40.5247 67.5631 40.4373L23.9821 39.1372C21.1115 39.0443 18.6697 41.3277 18.585 44.2229C18.4976 47.1181 20.7755 49.5353 23.6707 49.62L67.2517 50.9201C67.3036 50.9229 67.3582 50.9229 67.4101 50.9229V50.9229Z" fill="#8CD6FE"/>
</g>
</svg>
