<svg width="201" height="177" viewBox="0 0 201 177" fill="none" xmlns="http://www.w3.org/2000/svg">
<g id="head">
<path id="Vector" d="M1.70907e-05 93.4167C1.70907e-05 145.009 44.8811 176.468 100.245 176.468C155.609 176.468 200.49 145.009 200.49 93.4167C200.49 41.8248 155.609 0 100.245 0C44.8811 0 1.70907e-05 41.8248 1.70907e-05 93.4167Z" fill="#F7EF87"/>
<path id="Vector_2" d="M51.2915 167.105C135.16 162.689 159.853 40.8196 124.753 2.81598C168.271 13.0065 200.49 49.7046 200.49 93.4167C200.49 145.009 155.609 176.468 100.245 176.468C82.4641 176.468 65.7703 173.218 51.2915 167.105Z" fill="#EFD176"/>
<path id="Vector_3" d="M137.405 104.705C137.405 95.1484 147.134 87.3996 159.132 87.3996C171.134 87.3996 180.86 95.1484 180.86 104.705C180.86 114.262 171.134 122.008 159.132 122.008C147.134 122.008 137.405 114.262 137.405 104.705Z" fill="#EDA1AB"/>
<path id="Vector_4" d="M19.63 104.705C19.63 95.1484 29.3562 87.3996 41.3577 87.3996C53.3564 87.3996 63.0854 95.1484 63.0854 104.705C63.0854 114.262 53.3564 122.008 41.3577 122.008C29.3562 122.008 19.63 114.262 19.63 104.705Z" fill="#EDA1AB"/>
<g id="Group">
<path id="Vector_5" d="M136.126 91.1197C139.024 91.1197 141.371 88.7707 141.371 85.8755C141.371 83.065 143.657 80.7762 146.47 80.7762C149.28 80.7762 151.569 83.065 151.569 85.8755C151.569 88.7707 153.916 91.1197 156.813 91.1197C159.709 91.1197 162.058 88.7707 162.058 85.8755C162.058 77.2801 155.065 70.2879 146.47 70.2879C137.874 70.2879 130.882 77.2801 130.882 85.8755C130.882 88.7707 133.231 91.1197 136.126 91.1197Z" fill="#4E5660"/>
<path id="Vector_6" d="M43.6793 91.1197C46.5745 91.1197 48.9235 88.7707 48.9235 85.8755C48.9235 83.065 51.2096 80.7762 54.0201 80.7762C56.8306 80.7762 59.1195 83.065 59.1195 85.8755C59.1195 88.7707 61.4657 91.1197 64.3636 91.1197C67.2588 91.1197 69.6078 88.7707 69.6078 85.8755C69.6078 77.2801 62.6156 70.2879 54.0201 70.2879C45.4274 70.2879 38.4352 77.2801 38.4352 85.8755C38.4352 88.7707 40.7814 91.1197 43.6793 91.1197Z" fill="#4E5660"/>
<path id="Vector_7" d="M100.245 108.204C105.967 108.204 111.405 105.727 115.169 101.409C117.073 99.2235 116.846 95.9132 114.661 94.0094C112.479 92.1057 109.166 92.3324 107.262 94.5174C105.489 96.5495 102.933 97.7158 100.245 97.7158C97.5574 97.7158 95.0009 96.5495 93.2282 94.5174C91.3245 92.3324 88.0114 92.1057 85.8291 94.0094C83.6468 95.9104 83.4201 99.2235 85.3211 101.409C89.0848 105.727 94.5256 108.204 100.245 108.204V108.204Z" fill="#4E5660"/>
<path id="Vector_8" d="M137.405 45.4929C140.3 45.4929 142.649 43.1467 142.649 40.2488C142.649 25.1391 154.943 12.8481 170.052 12.8481C172.947 12.8481 175.296 10.4992 175.296 7.604C175.296 4.70607 172.947 2.35986 170.052 2.35986C149.158 2.35986 132.161 19.3569 132.161 40.2488C132.161 43.1467 134.507 45.4929 137.405 45.4929Z" fill="#4E5660"/>
<path id="Vector_9" d="M63.0854 45.4929C65.9806 45.4929 68.3295 43.1467 68.3295 40.2488C68.3295 19.3569 51.3325 2.35986 30.4379 2.35986C27.5427 2.35986 25.1937 4.70607 25.1937 7.604C25.1937 10.4992 27.5427 12.8481 30.4379 12.8481C45.5503 12.8481 57.8412 25.1391 57.8412 40.2488C57.8412 43.1467 60.1902 45.4929 63.0854 45.4929V45.4929Z" fill="#4E5660"/>
</g>
</g>
</svg>
