<svg width="306" height="306" viewBox="0 0 306 306" fill="none" xmlns="http://www.w3.org/2000/svg">
<g id="bee (2) 1">
<g id="back-wing">
<path id="Vector" d="M162.1 121.224L191.336 150.462C207.328 166.454 233.259 166.454 249.251 150.462C265.243 134.468 265.243 108.54 249.251 92.548C229.29 72.5872 196.925 72.5872 176.965 92.548L162.1 107.412C158.286 111.227 158.286 117.409 162.1 121.224Z" fill="#8CD6FE"/>
<path id="Vector_2" d="M216.702 121.016C219.116 121.016 221.107 119.095 221.179 116.667C221.254 114.192 219.309 112.126 216.832 112.054L179.582 110.94C177.13 110.858 175.041 112.812 174.969 115.287C174.894 117.762 176.841 119.828 179.316 119.9L216.566 121.014C216.611 121.014 216.657 121.016 216.702 121.016Z" fill="#BAE7FF"/>
</g>
<g id="left-leg">
<path id="Vector_3" d="M98.0553 297.234C98.3845 297.234 98.716 297.22 99.0475 297.194C105.762 296.652 110.765 290.771 110.223 284.057C108.951 268.292 124.707 257.618 126.995 256.654C133.203 254.041 136.114 246.89 133.501 240.683C130.887 234.475 123.736 231.561 117.53 234.176C106.684 238.743 83.6649 258.138 85.9131 286.018C86.4267 292.399 91.7636 297.234 98.0553 297.234V297.234Z" fill="#EFD176"/>
</g>
<g id="left-hand">
<path id="Vector_4" d="M65.6348 201.819C77.7116 201.819 89.4243 196.225 100.481 185.168C105.244 180.406 105.244 172.685 100.481 167.923C95.7184 163.162 87.9979 163.162 83.2353 167.923C76.6844 174.474 70.5374 177.674 64.9624 177.415C59.0839 177.151 52.7525 173 46.1456 165.084C41.8312 159.913 34.1411 159.217 28.97 163.531C23.7988 167.848 23.1055 175.538 27.4198 180.707C38.5978 194.105 50.8591 201.193 63.8652 201.779C64.4558 201.807 65.0441 201.819 65.6348 201.819V201.819Z" fill="#EFD176"/>
</g>
<g id="right-leg">
<path id="Vector_5" d="M163.998 306C166.445 306 168.915 305.267 171.058 303.74C176.547 299.837 177.828 292.221 173.925 286.735C164.636 273.68 172.176 257.065 173.951 254.55C177.835 249.05 176.523 241.439 171.021 237.557C165.518 233.672 157.91 234.984 154.025 240.487C147.049 250.374 137.876 278.139 154.053 300.873C156.432 304.216 160.188 306 163.998 306Z" fill="#EFD176"/>
</g>
<g id="body">
<path id="Vector_6" d="M208.993 215.189L220.535 253.128C222.779 260.508 215.882 267.407 208.503 265.161L170.561 253.619L179.073 223.701L208.993 215.189Z" fill="#4E5660"/>
<path id="Vector_7" d="M83.3147 127.94C111.173 100.082 159.495 103.236 191.245 134.984C222.996 166.734 226.15 215.056 198.291 242.915C170.432 270.773 122.109 267.619 90.3605 235.871C58.61 204.121 55.456 155.799 83.3147 127.94V127.94Z" fill="#F7EF87"/>
<path id="Vector_8" d="M173.647 121.193C179.876 124.943 185.803 129.544 191.243 134.984C197.946 141.687 203.367 149.127 207.499 156.957C192.424 205.696 147.869 255.496 91.4391 236.931C91.0772 236.578 90.7153 236.228 90.3558 235.871C78.7062 224.221 70.911 210.338 67.0822 196.055C117.444 207.793 157.377 165.453 173.647 121.193V121.193Z" fill="#4E5660"/>
</g>
<g id="right-hand">
<path id="Vector_9" d="M179.696 244.474C184.573 244.474 189.177 241.533 191.056 236.716C195.588 225.123 195.291 212.499 190.22 201.167C185.407 190.417 176.717 182.045 166.382 178.195C160.069 175.846 153.049 179.059 150.698 185.369C148.349 191.682 151.56 198.702 157.872 201.053C162.061 202.612 165.831 206.381 167.96 211.134C170.339 216.45 170.474 222.382 168.343 227.838C165.889 234.111 168.987 241.182 175.26 243.636C176.717 244.206 178.221 244.474 179.696 244.474Z" fill="#EFD176"/>
</g>
<g id="head">
<path id="Vector_10" d="M20.0051 79.8478C20.0051 123.946 58.3672 150.836 105.689 150.836C153.012 150.836 191.374 123.946 191.374 79.8478C191.374 35.7496 153.012 0 105.689 0C58.3672 0 20.0051 35.7496 20.0051 79.8478Z" fill="#F7EF87"/>
<path id="Vector_11" d="M63.8465 142.833C135.533 139.058 156.64 34.8905 126.638 2.40697C163.835 11.1173 191.374 42.485 191.374 79.8478C191.374 123.946 153.012 150.836 105.689 150.836C90.4912 150.836 76.2222 148.058 63.8465 142.833Z" fill="#EFD176"/>
<path id="Vector_12" d="M137.452 89.4967C137.452 81.3279 145.767 74.7047 156.023 74.7047C166.282 74.7047 174.595 81.3279 174.595 89.4967C174.595 97.6654 166.282 104.286 156.023 104.286C145.767 104.286 137.452 97.6654 137.452 89.4967Z" fill="#EDA1AB"/>
<path id="Vector_13" d="M36.7839 89.4967C36.7839 81.3279 45.0974 74.7047 55.3556 74.7047C65.6115 74.7047 73.9273 81.3279 73.9273 89.4967C73.9273 97.6654 65.6115 104.286 55.3556 104.286C45.0974 104.286 36.7839 97.6654 36.7839 89.4967Z" fill="#EDA1AB"/>
<g id="Group">
<path id="Vector_14" d="M136.359 77.8844C138.836 77.8844 140.841 75.8767 140.841 73.402C140.841 70.9997 142.795 69.0433 145.2 69.0433C147.602 69.0433 149.559 70.9997 149.559 73.402C149.559 75.8767 151.564 77.8844 154.041 77.8844C156.516 77.8844 158.524 75.8767 158.524 73.402C158.524 66.055 152.547 60.0785 145.2 60.0785C137.853 60.0785 131.877 66.055 131.877 73.402C131.877 75.8767 133.884 77.8844 136.359 77.8844Z" fill="#4E5660"/>
<path id="Vector_15" d="M57.34 77.8844C59.8147 77.8844 61.8224 75.8767 61.8224 73.402C61.8224 70.9997 63.7765 69.0433 66.1788 69.0433C68.5811 69.0433 70.5374 70.9997 70.5374 73.402C70.5374 75.8767 72.5429 77.8844 75.0199 77.8844C77.4945 77.8844 79.5023 75.8767 79.5023 73.402C79.5023 66.055 73.5257 60.0785 66.1788 60.0785C58.8341 60.0785 52.8576 66.055 52.8576 73.402C52.8576 75.8767 54.863 77.8844 57.34 77.8844Z" fill="#4E5660"/>
<path id="Vector_16" d="M105.689 92.4873C110.58 92.4873 115.229 90.3698 118.446 86.6788C120.073 84.8112 119.879 81.9816 118.011 80.3544C116.146 78.7272 113.314 78.921 111.687 80.7886C110.172 82.5256 107.987 83.5225 105.689 83.5225C103.392 83.5225 101.207 82.5256 99.6918 80.7886C98.0646 78.921 95.2328 78.7272 93.3674 80.3544C91.5021 81.9793 91.3083 84.8112 92.9332 86.6788C96.1503 90.3698 100.801 92.4873 105.689 92.4873V92.4873Z" fill="#4E5660"/>
<path id="Vector_17" d="M137.452 38.885C139.926 38.885 141.934 36.8796 141.934 34.4026C141.934 21.4876 152.442 10.9819 165.357 10.9819C167.832 10.9819 169.839 8.97418 169.839 6.49951C169.839 4.02251 167.832 2.01709 165.357 2.01709C147.497 2.01709 132.969 16.5453 132.969 34.4026C132.969 36.8796 134.975 38.885 137.452 38.885Z" fill="#4E5660"/>
<path id="Vector_18" d="M73.9273 38.885C76.4019 38.885 78.4097 36.8796 78.4097 34.4026C78.4097 16.5453 63.8815 2.01709 46.0219 2.01709C43.5472 2.01709 41.5394 4.02251 41.5394 6.49951C41.5394 8.97418 43.5472 10.9819 46.0219 10.9819C58.9392 10.9819 69.4449 21.4876 69.4449 34.4026C69.4449 36.8796 71.4526 38.885 73.9273 38.885V38.885Z" fill="#4E5660"/>
</g>
</g>
<g id="frount-wing">
<path id="Vector_19" d="M187.134 154.851L216.37 184.09C232.362 200.082 258.29 200.082 274.282 184.09C290.277 168.098 290.277 142.17 274.282 126.176C254.321 106.215 221.959 106.215 201.998 126.176L187.134 141.042C183.319 144.855 183.319 151.039 187.134 154.851Z" fill="#BAE7FF"/>
<path id="Vector_20" d="M241.736 154.644C244.15 154.644 246.141 152.725 246.213 150.297C246.288 147.822 244.341 145.756 241.866 145.681L204.616 144.57C202.162 144.49 200.075 146.442 200.002 148.917C199.928 151.391 201.875 153.458 204.349 153.53L241.6 154.641C241.645 154.644 241.691 154.644 241.736 154.644V154.644Z" fill="#8CD6FE"/>
</g>
</g>
</svg>
