<svg width="342" height="342" viewBox="0 0 342 342" fill="none" xmlns="http://www.w3.org/2000/svg">
<g id="bee (2) 1">
<g id="back-wing">
<g id="back-wing_2">
<path id="Vector" d="M160.829 135.485L128.153 168.164C110.28 186.037 81.2991 186.037 63.4257 168.164C45.5523 150.288 45.5523 121.309 63.4257 103.436C85.7348 81.1269 121.907 81.1269 144.216 103.436L160.829 120.049C165.093 124.313 165.093 131.222 160.829 135.485Z" fill="#8CD6FE"/>
</g>
<path id="Vector_2" d="M99.8039 135.253C97.106 135.253 94.8803 133.106 94.7994 130.392C94.7159 127.626 96.8894 125.317 99.6578 125.236L141.291 123.992C144.031 123.9 146.366 126.084 146.447 128.85C146.53 131.616 144.354 133.925 141.589 134.006L99.9553 135.251C99.9057 135.251 99.8535 135.253 99.8039 135.253Z" fill="#BAE7FF"/>
</g>
<g id="right-leg">
<g id="Group 1">
<path id="Vector_3" d="M232.409 332.202C232.041 332.202 231.67 332.187 231.3 332.158C223.796 331.553 218.204 324.98 218.809 317.476C220.231 299.855 202.622 287.926 200.064 286.848C193.126 283.928 189.873 275.936 192.792 268.998C195.715 262.06 203.707 258.804 210.642 261.726C222.765 266.83 248.492 288.508 245.979 319.667C245.405 326.799 239.441 332.202 232.409 332.202V332.202Z" fill="#EFD176"/>
</g>
</g>
<g id="right-hand">
<path id="Vector_4" d="M268.643 225.562C255.146 225.562 242.055 219.31 229.698 206.953C224.375 201.63 224.375 193.001 229.698 187.678C235.021 182.358 243.649 182.358 248.972 187.678C256.294 195 263.164 198.577 269.395 198.288C275.965 197.993 283.041 193.353 290.426 184.505C295.247 178.726 303.842 177.948 309.622 182.77C315.401 187.595 316.176 196.19 311.354 201.967C298.861 216.941 285.157 224.863 270.621 225.518C269.961 225.549 269.304 225.562 268.643 225.562V225.562Z" fill="#EFD176"/>
</g>
<g id="left-leg">
<path id="Vector_5" d="M158.708 342C155.973 342 153.213 341.181 150.817 339.474C144.683 335.112 143.251 326.6 147.613 320.468C157.995 305.877 149.568 287.307 147.585 284.497C143.243 278.35 144.709 269.844 150.859 265.505C157.009 261.163 165.513 262.629 169.855 268.779C177.651 279.829 187.903 310.861 169.823 336.27C167.164 340.007 162.966 342 158.708 342Z" fill="#EFD176"/>
</g>
<g id="body">
<path id="Vector_6" d="M108.42 240.505L95.5195 282.908C93.012 291.156 100.72 298.866 108.968 296.356L151.373 283.456L141.86 250.019L108.42 240.505Z" fill="#4E5660"/>
<path id="Vector_7" d="M248.884 142.992C217.747 111.856 163.741 115.381 128.255 150.864C92.7694 186.35 89.2443 240.357 120.38 271.493C151.517 302.629 205.526 299.104 241.009 263.621C276.495 228.135 280.02 174.128 248.884 142.992V142.992Z" fill="#F7EF87"/>
<path id="Vector_8" d="M147.924 135.452C140.962 139.642 134.337 144.785 128.258 150.864C120.767 158.356 114.708 166.671 110.09 175.423C126.938 229.896 176.735 285.554 239.803 264.805C240.208 264.411 240.612 264.02 241.014 263.621C254.034 250.6 262.747 235.083 267.026 219.12C210.739 232.239 166.108 184.918 147.924 135.452V135.452Z" fill="#4E5660"/>
</g>
<g id="left-hand">
<path id="Vector_9" d="M141.163 273.236C135.712 273.236 130.567 269.948 128.467 264.565C123.402 251.608 123.733 237.499 129.401 224.834C134.781 212.819 144.493 203.462 156.044 199.159C163.099 196.534 170.945 200.124 173.573 207.177C176.198 214.233 172.61 222.079 165.555 224.706C160.874 226.449 156.66 230.661 154.28 235.973C151.621 241.914 151.47 248.544 153.852 254.642C156.594 261.653 153.132 269.557 146.121 272.299C144.493 272.936 142.812 273.236 141.163 273.236Z" fill="#EFD176"/>
</g>
<g id="head">
<path id="Vector_10" d="M319.641 89.2417C319.641 138.528 276.766 168.581 223.877 168.581C170.987 168.581 128.112 138.528 128.112 89.2417C128.112 39.9555 170.987 0 223.877 0C276.766 0 319.641 39.9555 319.641 89.2417Z" fill="#F7EF87"/>
<path id="Vector_11" d="M188.378 100.026C188.378 90.8959 179.083 83.4935 167.621 83.4935C156.156 83.4935 146.864 90.8959 146.864 100.026C146.864 109.155 156.156 116.555 167.621 116.555C179.083 116.555 188.378 109.155 188.378 100.026Z" fill="#EDA1AB"/>
<path id="Vector_12" d="M300.889 100.026C300.889 90.8959 291.597 83.4935 280.132 83.4935C268.67 83.4935 259.375 90.8959 259.375 100.026C259.375 109.155 268.67 116.555 280.132 116.555C291.597 116.555 300.889 109.155 300.889 100.026Z" fill="#EDA1AB"/>
<g id="Group">
<path id="Vector_13" d="M189.599 87.0473C186.83 87.0473 184.589 84.8033 184.589 82.0375C184.589 79.3526 182.405 77.166 179.718 77.166C177.033 77.166 174.846 79.3526 174.846 82.0375C174.846 84.8033 172.605 87.0473 169.836 87.0473C167.07 87.0473 164.827 84.8033 164.827 82.0375C164.827 73.8262 171.506 67.1465 179.718 67.1465C187.929 67.1465 194.609 73.8262 194.609 82.0375C194.609 84.8033 192.365 87.0473 189.599 87.0473Z" fill="#4E5660"/>
<path id="Vector_14" d="M277.914 87.0473C275.148 87.0473 272.904 84.8033 272.904 82.0375C272.904 79.3526 270.72 77.166 268.035 77.166C265.351 77.166 263.164 79.3526 263.164 82.0375C263.164 84.8033 260.923 87.0473 258.154 87.0473C255.388 87.0473 253.145 84.8033 253.145 82.0375C253.145 73.8262 259.824 67.1465 268.035 67.1465C276.244 67.1465 282.924 73.8262 282.924 82.0375C282.924 84.8033 280.683 87.0473 277.914 87.0473Z" fill="#4E5660"/>
<path id="Vector_15" d="M223.877 103.368C218.41 103.368 213.215 101.002 209.62 96.8763C207.801 94.7889 208.017 91.6265 210.105 89.8079C212.19 87.9892 215.355 88.2058 217.173 90.2932C218.867 92.2345 221.309 93.3486 223.877 93.3486C226.444 93.3486 228.886 92.2345 230.58 90.2932C232.398 88.2058 235.563 87.9892 237.648 89.8079C239.733 91.6239 239.95 94.7889 238.133 96.8763C234.538 101.002 229.34 103.368 223.877 103.368V103.368Z" fill="#4E5660"/>
<path id="Vector_16" d="M188.378 43.4597C185.612 43.4597 183.368 41.2184 183.368 38.45C183.368 24.0156 171.624 12.2739 157.189 12.2739C154.423 12.2739 152.179 10.03 152.179 7.26416C152.179 4.49574 154.423 2.25439 157.189 2.25439C177.15 2.25439 193.387 18.4918 193.387 38.45C193.387 41.2184 191.146 43.4597 188.378 43.4597Z" fill="#4E5660"/>
<path id="Vector_17" d="M259.375 43.4597C256.61 43.4597 254.366 41.2184 254.366 38.45C254.366 18.4918 270.603 2.25439 290.564 2.25439C293.33 2.25439 295.574 4.49574 295.574 7.26416C295.574 10.03 293.33 12.2739 290.564 12.2739C276.127 12.2739 264.385 24.0156 264.385 38.45C264.385 41.2184 262.141 43.4597 259.375 43.4597V43.4597Z" fill="#4E5660"/>
</g>
</g>
<g id="front-wing">
<g id="frount-wing">
<path id="Vector_18" d="M132.85 173.069L100.174 205.747C82.3011 223.621 53.3227 223.621 35.4493 205.747C17.5733 187.874 17.5733 158.896 35.4493 141.02C57.7584 118.711 93.9279 118.711 116.237 141.02L132.85 157.635C137.114 161.896 137.114 168.808 132.85 173.069Z" fill="#BAE7FF"/>
</g>
<path id="Vector_19" d="M71.8249 172.837C69.1269 172.837 66.9012 170.692 66.8203 167.978C66.7369 165.213 68.913 162.903 71.6788 162.82L113.312 161.578C116.054 161.489 118.387 163.671 118.468 166.436C118.551 169.202 116.375 171.511 113.609 171.592L71.9762 172.834C71.9267 172.837 71.8745 172.837 71.8249 172.837V172.837Z" fill="#8CD6FE"/>
</g>
</g>
</svg>
