<svg width="512" height="512" viewBox="0 0 512 512" fill="none" xmlns="http://www.w3.org/2000/svg">
<g id="trees 1" clip-path="url(#clip0)">
<g id="Group">
<g id="Group_2">
<path id="Vector" d="M285.84 454H189.92V430C189.92 421.2 197.04 414.08 205.92 414.08C214.72 414.08 221.92 421.208 221.92 430H222V422C222 413.2 229.2 406 238 406C246.8 406 254 413.2 254 422V430C254 421.2 261.2 414.08 270 414.08C278.8 414.08 286 421.208 286 430H285.84V454Z" fill="#A0D468"/>
</g>
<g id="Group_3">
<g id="left-tree">
<path id="Vector_2" d="M110.08 350.08H110C48.16 350.08 -2 299.92 -2 238.08C-2 176.248 48.16 126.08 110 126.08C171.84 126.08 222 176.248 222 238.08C222 299.92 171.92 350 110.08 350.08V350.08Z" fill="#A0D468"/>
<g id="Group_4">
<path id="Vector_3" d="M110.048 310.032C108 310.032 105.952 309.248 104.392 307.688C101.264 304.56 101.264 299.504 104.392 296.376L144.368 256.392C147.496 253.264 152.552 253.264 155.68 256.392C158.808 259.52 158.808 264.576 155.68 267.704L115.704 307.688C114.144 309.248 112.096 310.032 110.048 310.032Z" fill="#844747"/>
</g>
<g id="Group_5">
<path id="Vector_4" d="M110.048 462.032C105.624 462.032 102.048 458.456 102.048 454.032V238.032C102.048 233.608 105.624 230.032 110.048 230.032C114.472 230.032 118.048 233.608 118.048 238.032V454.032C118.048 458.456 114.472 462.032 110.048 462.032Z" fill="#965353"/>
</g>
</g>
<g id="Group_6">
<g id="right-tree">
<path id="Vector_5" d="M366 366.08C304.16 366.08 254 315.92 254 254.08C254 192.248 304.16 30 366 30C427.84 30 478 192.24 478 254.08C478 315.92 427.84 366.08 366 366.08Z" fill="#A0D468"/>
<path id="Vector_6" d="M365.96 310.032C363.912 310.032 361.864 309.248 360.304 307.688L320.328 267.704C317.2 264.576 317.2 259.52 320.328 256.392C323.456 253.264 328.512 253.264 331.64 256.392L371.616 296.376C374.744 299.504 374.744 304.56 371.616 307.688C370.056 309.248 368.008 310.032 365.96 310.032Z" fill="#844747"/>
<path id="Vector_7" d="M365.96 462.032C361.536 462.032 357.96 458.456 357.96 454.032V238.032C357.96 233.608 361.536 230.032 365.96 230.032C370.384 230.032 373.96 233.608 373.96 238.032V454.032C373.96 458.456 370.384 462.032 365.96 462.032Z" fill="#965353"/>
</g>
</g>
<g id="Group_7">
<path id="Vector_8" d="M-1.98401 462.032C-6.40801 462.032 -9.98401 458.456 -9.98401 454.032V446.032C-9.98401 441.608 -6.40801 438.032 -1.98401 438.032C2.43999 438.032 6.01599 441.608 6.01599 446.032V454.032C6.01599 458.456 2.43999 462.032 -1.98401 462.032Z" fill="#8CC152"/>
</g>
<g id="Group_8">
<path id="Vector_9" d="M30 462.032C25.576 462.032 22 458.456 22 454.032V446.032C22 441.608 25.576 438.032 30 438.032C34.424 438.032 38 441.608 38 446.032V454.032C38 458.456 34.424 462.032 30 462.032Z" fill="#8CC152"/>
</g>
<g id="Group_9">
<path id="Vector_10" d="M61.984 462.032C57.56 462.032 53.984 458.456 53.984 454.032V446.032C53.984 441.608 57.56 438.032 61.984 438.032C66.408 438.032 69.984 441.608 69.984 446.032V454.032C69.984 458.456 66.408 462.032 61.984 462.032Z" fill="#8CC152"/>
</g>
<g id="Group_10">
<path id="Vector_11" d="M93.968 462.032C89.544 462.032 85.968 458.456 85.968 454.032V446.032C85.968 441.608 89.544 438.032 93.968 438.032C98.392 438.032 101.968 441.608 101.968 446.032V454.032C101.968 458.456 98.392 462.032 93.968 462.032Z" fill="#8CC152"/>
</g>
<g id="Group_11">
<path id="Vector_12" d="M125.952 462.032C121.528 462.032 117.952 458.456 117.952 454.032V446.032C117.952 441.608 121.528 438.032 125.952 438.032C130.376 438.032 133.952 441.608 133.952 446.032V454.032C133.952 458.456 130.376 462.032 125.952 462.032Z" fill="#8CC152"/>
</g>
<g id="Group_12">
<path id="Vector_13" d="M157.936 462.032C153.512 462.032 149.936 458.456 149.936 454.032V446.032C149.936 441.608 153.512 438.032 157.936 438.032C162.36 438.032 165.936 441.608 165.936 446.032V454.032C165.936 458.456 162.36 462.032 157.936 462.032Z" fill="#8CC152"/>
</g>
<g id="Group_13">
<path id="Vector_14" d="M189.92 462.032C185.496 462.032 181.92 458.456 181.92 454.032V446.032C181.92 441.608 185.496 438.032 189.92 438.032C194.344 438.032 197.92 441.608 197.92 446.032V454.032C197.92 458.456 194.344 462.032 189.92 462.032Z" fill="#8CC152"/>
</g>
<g id="Group_14">
<path id="Vector_15" d="M317.856 462.032C313.432 462.032 309.856 458.456 309.856 454.032V446.032C309.856 441.608 313.432 438.032 317.856 438.032C322.28 438.032 325.856 441.608 325.856 446.032V454.032C325.856 458.456 322.28 462.032 317.856 462.032Z" fill="#8CC152"/>
</g>
<g id="Group_15">
<path id="Vector_16" d="M286 462.032C281.576 462.032 278 458.456 278 454.032V446.032C278 441.608 281.576 438.032 286 438.032C290.424 438.032 294 441.608 294 446.032V454.032C294 458.456 290.424 462.032 286 462.032Z" fill="#8CC152"/>
</g>
<g id="Group_16">
<path id="Vector_17" d="M254 462.032C249.576 462.032 246 458.456 246 454.032V446.032C246 441.608 249.576 438.032 254 438.032C258.424 438.032 262 441.608 262 446.032V454.032C262 458.456 258.424 462.032 254 462.032Z" fill="#8CC152"/>
</g>
<g id="Group_17">
<path id="Vector_18" d="M222 462.032C217.576 462.032 214 458.456 214 454.032V446.032C214 441.608 217.576 438.032 222 438.032C226.424 438.032 230 441.608 230 446.032V454.032C230 458.456 226.424 462.032 222 462.032Z" fill="#8CC152"/>
</g>
<g id="Group_18">
<path id="Vector_19" d="M349.84 462.032C345.416 462.032 341.84 458.456 341.84 454.032V446.032C341.84 441.608 345.416 438.032 349.84 438.032C354.264 438.032 357.84 441.608 357.84 446.032V454.032C357.84 458.456 354.264 462.032 349.84 462.032Z" fill="#8CC152"/>
</g>
<g id="Group_19">
<path id="Vector_20" d="M381.832 462.032C377.408 462.032 373.832 458.456 373.832 454.032V446.032C373.832 441.608 377.408 438.032 381.832 438.032C386.256 438.032 389.832 441.608 389.832 446.032V454.032C389.832 458.456 386.248 462.032 381.832 462.032Z" fill="#8CC152"/>
</g>
<g id="Group_20">
<path id="Vector_21" d="M413.816 462.032C409.392 462.032 405.816 458.456 405.816 454.032V446.032C405.816 441.608 409.392 438.032 413.816 438.032C418.24 438.032 421.816 441.608 421.816 446.032V454.032C421.816 458.456 418.232 462.032 413.816 462.032Z" fill="#8CC152"/>
</g>
<g id="Group_21">
<path id="Vector_22" d="M445.8 462.032C441.376 462.032 437.8 458.456 437.8 454.032V446.032C437.8 441.608 441.376 438.032 445.8 438.032C450.224 438.032 453.8 441.608 453.8 446.032V454.032C453.8 458.456 450.216 462.032 445.8 462.032Z" fill="#8CC152"/>
</g>
<g id="Group_22">
<path id="Vector_23" d="M477.784 462.032C473.36 462.032 469.784 458.456 469.784 454.032V446.032C469.784 441.608 473.36 438.032 477.784 438.032C482.208 438.032 485.784 441.608 485.784 446.032V454.032C485.784 458.456 482.2 462.032 477.784 462.032Z" fill="#8CC152"/>
</g>
<g id="Group_23">
<path id="Vector_24" d="M486 462.032H-10C-14.424 462.032 -18 458.456 -18 454.032C-18 449.608 -14.424 446.032 -10 446.032H486C490.424 446.032 494 449.608 494 454.032C494 458.456 490.424 462.032 486 462.032Z" fill="#A0D468"/>
</g>
</g>
</g>
</g>
<defs>
<clipPath id="clip0">
<rect width="512" height="512" fill="white"/>
</clipPath>
</defs>
</svg>
